<!DOCTYPE svg  PUBLIC '-//W3C//DTD SVG 1.1//EN'  'http://www.w3.org/Graphics/SVG/1.1/DTD/svg11.dtd'>
<svg width="512pt" height="512pt" version="1.1" viewBox="0 0 512 512" xmlns="http://www.w3.org/2000/svg"><g fill="#ffffff"><path d="m238 3c4-1 9-0.6 14-0.8 8 0.1 16-0.3 24 0.2 4 1 8 0.5 12 1 2 0.2 4 0.4 6 0.6 2 0.6 5 0.9 7 1 2 0.3 3 0.6 5 1 2 0.3 3 0.6 5 1 0.9 0.2 2 0.5 3 0.7 2 0.4 3 0.6 5 0.9 1 0.4 2 0.8 3 1 1 0.3 3 0.6 4 0.8 1 0.5 3 1 4 2 0.9 0.09 2 0.2 3 0.3 1 0.6 3 1 4 2 0.4 0.06 1 0.2 2 0.2 1 0.6 2 1 3 2 1 0.3 2 0.7 3 1 0.4 0.07 1 0.2 2 0.3 1 0.6 2 1 3 2 0.5 0.03 1 0.1 2 0.1 2 1 3 2 5 3 0.4 0.05 1 0.2 2 0.2 5 3 11 5 16 8 16 9 31 19 45 31 7 6 13 13 20 19 18 20 33 42 45 66 0.05 0.4 0.2 1 0.2 2 1 2 3 5 4 7 0.04 0.5 0.1 1 0.2 2 0.6 1 1 2 2 3l0.08 2c0.6 1 1 2 2 3 0.05 0.5 0.2 1 0.2 2 0.6 1 1 3 2 4 0.08 0.4 0.2 1 0.3 2 0.6 1 1 3 2 4 0.09 0.4 0.3 1 0.4 2 0.5 1 1 3 2 4 0.3 1 0.6 3 0.9 4 0.2 0.4 0.4 1 0.6 2 0.5 2 1 3 2 5 0.2 0.9 0.3 2 0.5 3 0.4 1 0.7 3 1 4 0.5 2 0.9 4 1 6 0.2 1 0.4 2 0.6 4 0.5 2 0.9 5 1 7 0.2 2 0.4 4 0.6 6 0.6 3 0.8 5 1 8 0.9 4 0.6 8 0.9 12 1 4 0.7 9 0.8 13-0.1 7 0.2 14-0.2 20-1 4-0.7 8-1 12-0.7 3-0.9 5-1 8-0.5 2-0.7 5-1 7-0.4 2-0.7 3-1 5-0.4 2-0.6 3-0.9 5-0.5 2-0.9 4-1 6-0.2 0.9-0.4 2-0.5 3-0.5 2-1 4-2 5-0.1 0.9-0.2 2-0.4 3-0.6 1-1 3-2 4-0.1 0.9-0.2 2-0.3 3-0.4 1-0.8 2-1 3-0.5 1-1 3-2 4-0.1 0.4-0.3 1-0.4 2-0.4 1-0.7 2-1 3-0.5 1-1 2-2 3-0.3 1-0.7 2-1 3-0.07 0.5-0.2 1-0.3 2-0.6 1-1 2-2 3-0.04 0.5-0.1 1-0.2 2-1 2-3 5-4 7-0.06 0.5-0.2 1-0.2 2-12 23-26 46-44 65-4 4-7 9-12 12-4 3-8 8-12 11-11 9-23 18-35 25-9 6-19 10-29 15-0.5 0.05-1 0.1-2 0.2-1 0.6-2 1-3 2-0.5 0.02-1 0.05-2 0.06-1 0.6-2 1-3 2-0.5 0.02-1 0.06-2 0.08-1 0.6-2 1-3 2-0.4 0.07-1 0.2-2 0.3-1 0.4-2 0.8-3 1-1 0.5-3 0.9-4 1-2 0.4-3 0.8-5 1h-139c-1-0.6-3-1-4-2-0.5-0.08-1-0.3-2-0.3-1-0.4-2-0.7-3-1-1-0.5-3-1-4-2-0.4-0.1-1-0.3-2-0.4-1-0.3-2-0.7-3-1-1-0.6-2-1-3-2-0.4-0.04-1-0.1-2-0.2-2-1-3-2-5-3-0.5-0.05-1-0.2-2-0.2-10-5-21-10-30-16-12-7-23-16-34-25-8-8-17-15-24-24-18-20-33-43-45-67l-0.2-2c-1-2-2-3-3-5-0.04-0.5-0.1-1-0.1-2-0.6-1-1-2-2-3-0.07-0.5-0.2-1-0.3-2-0.4-1-0.7-2-1-3-0.5-1-1-2-2-3-0.3-1-0.6-2-0.9-3-0.3-1-0.7-2-1-3-0.3-1-0.6-3-1-4-0.1-0.4-0.4-1-0.5-2-0.6-1-1-3-2-4-0.1-0.9-0.2-2-0.4-3-0.5-2-1-4-2-5-0.2-0.9-0.3-2-0.5-3-0.5-2-1-3-1-5-0.3-2-0.6-3-1-5-0.3-2-0.6-4-1-6-0.4-2-0.7-4-1-6-0.2-3-0.4-5-1-8-0.2-3-0.1-7-1-10-0.4-13-0.4-26 0-38 1-4 0.5-8 1-12 0.2-2 0.4-4 0.6-6 0.6-3 0.9-6 1-8 0.3-2 0.7-3 1-5 0.3-2 0.6-3 1-5 0.3-2 0.7-3 1-5 0.2-0.9 0.4-2 0.6-3 0.4-1 0.7-3 1-4 0.3-1 0.6-3 0.9-4 0.4-1 0.8-2 1-3 0.3-1 0.6-3 0.8-4 0.5-1 1-3 2-4 0.1-0.4 0.3-1 0.4-2 0.4-1 0.8-2 1-3 0.3-1 0.7-2 1-3 0.3-1 0.6-2 0.8-3 0.6-1 1-2 2-3 0.02-0.5 0.08-1 0.1-2l2-3c0.02-0.5 0.05-1 0.07-2 0.6-1 1-2 2-3 0.04-0.4 0.1-1 0.2-2 2-4 4-8 6-12 8-18 19-34 31-49 4-5 8-9 12-13 4-5 8-9 13-13 19-18 41-32 65-44l2-0.2c2-1 3-2 5-3 0.5-0.03 1-0.1 2-0.1 1-0.6 2-1 3-2 0.5-0.07 1-0.2 2-0.3 1-0.4 2-0.7 3-1 1-0.5 2-1 3-2 1-0.3 2-0.6 3-0.9 1-0.4 2-0.8 3-1 0.5-0.1 1-0.4 2-0.5 2-0.5 3-1 5-1 0.4-0.1 1-0.4 2-0.5 2-0.5 3-1 5-2 0.9-0.2 2-0.3 3-0.5 1-0.4 3-0.8 4-1 2-0.5 4-0.8 6-1 2-0.3 3-0.6 5-1 2-0.4 3-0.7 5-1 2-0.2 4-0.4 6-0.6 3-0.6 5-0.8 8-1 4-0.8 7-0.7 11-0.9m-4 67c-6-2-12-3-18-2-11 2-20 9-27 16-8 8-16 16-25 22-6 5-12 9-16 15-5 8-5 18-3 26 3 10 10 18 17 26 9 9 20 17 33 16-0.5 9-2 18-6 26-6 13-15 24-23 36-10-5-23-5-32 0.5-8 4-13 11-16 19-6-8-9-18-9-28 0.2-5 1-10 4-13 2-3 7-4 10-2 2 2 4 4 6 6 6 4 14 4 20 1 7-3 12-11 12-19 0.05-8-4-15-9-20-9-9-21-14-34-13-13 0.2-26 6-35 15-12 11-19 28-19 44-0.8 18 4 37 15 51-5 9-6 20-1 29 3 6 9 10 15 12 1 24 5 50 18 71 8 14 21 25 37 30 8 3 16 4 24 4 58-0.01 117 0 175-0.01 14 0.03 27-4 39-12 13-9 22-22 29-37 8-18 10-38 11-57 6-2 12-7 13-13 3-9-0.1-19-7-25-7-6-16-8-24-7-3-12-13-22-25-25-9-2-18-0.7-26 3-2-11-4-23-5-34-0.6-5-0.9-11 0.7-17 1-5 5-9 8-13 7-11 10-24 10-37 10 2 19-5 24-13 4-9 6-19 5-28-2-10-10-16-16-23-10-10-17-23-30-30-8-5-18-6-27-5-8-4-17-8-27-10-22-4-46-0.8-64 12z"/><path d="m237 80c13-11 31-14 48-14 16 0.6 33 6 44 17 7 7 11 16 13 25 3 11 3 22 8 32 2 5 7 9 8 15 3 16-0.6 34-11 47-8 9-8 21-7 33 2 13 4 26 6 39-4 5-8 11-8 18 0.05 2-0.5 4 1 6 2 2 6 2 8-0.2 0.8-3 0.9-6 2-9 3-8 11-14 19-16 10-2 21 3 26 12 3 4 3 9 4 14 2 2 4 0.4 7 0.2 8-2 19 1 23 10 2 5 2 11-2 14-2 2-6 3-9 3-105 0-210-0.02-315 0.01-4-0.1-9 0.4-12-2-5-3-7-10-6-16 2-10 10-18 19-20 6-2 12-1 18 0.3 3 0.5 3-3 3-5 0.1-10 7-19 16-22 4-2 9-2 13-2 10 1 18 9 21 19 1 4 1 8 0.9 12 2 2 4 3 6 2 3-0.7 3-4 4-6 6-12 21-20 34-15 9 3 16 13 15 23-0.5 3 3 4 5 2 3-3 6-6 10-7 7-3 15-0.5 20 5 3 3 4 8 5 12 3 0.4 6-2 9-3 4-1 9-0.5 12 2 3 2 4 5 6 7 1 0.2 2 0.3 4 0.4 2-2 3-5 1-8-4-10-16-14-26-11-3-6-7-10-12-13-8-4-19-4-27 0.7-3-9-10-16-18-20-9-4-21-3-30 2-5 2-8 6-12 10-2-6-5-11-9-15 8-13 17-25 24-38 5-10 7-22 7-33 10-5 14-16 16-27 3-16 5-32 8-48 0.3-3 1-6-0.9-8-2-2-6-1-8 1-3 18-6 35-9 53-1 6-3 13-7 18-5 5-14 4-20 1-9-5-17-13-23-22-5-7-9-16-6-25 2-7 8-11 14-15 9-7 16-14 24-22 6-6 13-12 22-15 5-2 11-2 15 0.6 2 0.9 5 2 7 0.6m81 35c-4 2-8 5-9 9-1 3 2 6 4 5 4-0.4 5-6 9-6 4-0.4 6 3 7 5 2 3 8 0.06 7-3-2-8-11-14-19-11m-59 3c-6 2-11 8-12 14-0.6 4 6 6 8 2 2-4 4-8 9-8 4-0.7 7 3 9 6 2 3 8 0.9 7-3-1-9-12-15-21-11m34 28c-4 3-4 9-1 14 4 6 11 9 18 10-0.2 7-5 13-11 16-13 7-31-0.2-37-14-1-2-0.9-5-4-6-3-0.6-6 2-8 4-2 2-3 5-1 7 1 2 4 0.8 5 0.8 3 6 5 12 8 18 4 10 11 20 20 26 10 7 22 9 33 5 6-2 12-7 14-14 2-6 2-13 2-19 9-4 17-12 18-22 0.2-4-6-6-8-2-2 5-4 10-10 12-4 2-11 2-14-3 0.2-3 1-7 1-10 6-2 12-6 14-12 2-5 0.3-11-4-13-6-3-14-3-21-3-5 0.5-11 0.8-15 5z"/><path d="m337 78c6 1 11 4 16 8 6 6 11 13 17 19 5 5 10 10 15 15 4 4 5 9 4 14-0.8 8-3 17-10 21-3 2-6 2-9 0.9-1-4-2-7-4-11-3-4-6-9-8-14-2-8-3-17-5-26-2-10-7-20-14-28z"/><path d="m91 207c8-7 18-12 28-12 11-0.4 22 4 28 13 3 5 5 11 1 16-3 5-11 6-15 2-2-3-5-5-9-6-8-3-16 0.5-21 7-6 8-6 18-5 27 1 8 4 16 8 24-8 1-16 5-22 11-10-15-13-33-11-50 2-12 7-23 16-31z"/><path d="m273 196c7 2 13 3 20 2 6-0.2 8 6 11 10 2-0.3 4-0.9 5-3 1-3-1-6-3-9 4-0.2 9-0.8 12 3 2 2 3 6 2 9-2 5-6 9-12 10-6 2-12 0.6-17-2-9-4-15-12-19-21z"/><path d="m103 336c104-0.1 208-0.2 312 0-1 20-4 40-13 58-7 14-18 26-32 32-7 3-16 5-24 5-56 0.02-112 0.01-168 0.02-9 0.2-19-0.1-28-4-15-5-26-17-34-30-10-19-13-40-15-61z"/></g><g fill="#9B92B8"><path d="m234 70c18-13 42-16 64-12 9 2 18 5 27 10 9-1 19 0.05 27 5 13 7 20 20 30 30 6 7 15 13 16 23 1 10-0.5 20-5 28-4 9-14 15-24 13 0.1 13-3 26-10 37-3 4-7 8-8 13-2 5-1 11-0.7 17 1 11 4 23 5 34 8-4 17-6 26-3 12 3 22 13 25 25 9-0.8 18 1 24 7 7 6 10 16 7 25-2 6-7 11-13 13-1 19-3 39-11 57-6 14-15 28-29 37-11 8-25 12-39 12-58 0.01-117 0-175 0.01-8 0.04-17-1-24-4-15-5-28-17-37-30-13-21-17-46-18-71-6-2-12-6-15-12-5-9-4-20 1-29-11-15-16-33-15-51 0.6-16 7-33 19-44 9-9 22-15 35-15 12-0.4 25 4 34 13 5 5 9 12 9 20 0.07 8-5 16-12 19-6 3-14 3-20-1-2-2-4-4-6-6-3-2-8-0.9-10 2-3 4-4 8-4 13-0.2 10 3 20 9 28 3-8 9-15 16-19 10-6 22-6 32-0.5 8-12 17-23 23-36 4-8 6-17 6-26-13 0.1-24-7-33-16-7-7-13-16-17-26-3-9-2-18 3-26 4-6 10-10 16-15 9-7 17-15 25-22 8-7 17-14 27-16 6-1 12-0.5 18 2m3 10c-2 2-5 0.3-7-0.6-5-2-10-2-15-0.6-9 3-15 9-22 15-8 8-16 15-24 22-5 4-12 8-14 15-3 9 1 18 6 25 6 9 13 17 23 22 6 3 15 4 20-1 5-5 6-11 7-18 3-18 6-35 9-53 2-2 6-3 8-1 2 2 1 5 0.9 8-3 16-6 32-8 48-2 10-6 21-16 27-0.02 12-2 23-7 33-6 14-16 26-24 38 4 4 7 9 9 15 3-4 7-7 12-10 9-5 20-6 30-2 9 4 15 11 18 20 8-5 19-5 27-0.7 6 3 10 8 12 13 10-3 22 0.9 26 11 1 3 0.5 6-1 8-1-0.07-3-0.2-4-0.4-2-2-3-5-6-7-3-3-8-3-12-2-3 0.8-6 3-9 3-0.9-4-2-9-5-12-5-6-13-8-20-5-4 1-7 4-10 7-2 2-6 0.6-5-2 0.2-10-6-20-15-23-13-5-28 3-34 15-1 2-2 5-4 6-2 0.9-4-0.5-6-2 0.1-4 0.3-8-0.9-12-3-10-11-17-21-19-5-0.4-9-0.4-13 2-9 4-16 13-16 22-0.08 2-0.08 5-3 5-6-1-12-2-18-0.3-9 3-18 11-19 20-1 6 0.6 13 6 16 4 2 8 2 12 2 105-0.03 210-0.01 315-0.01 3 0.03 6-0.4 9-3 4-4 4-10 2-14-4-8-14-12-23-10-2 0.2-5 2-7-0.2-1-5-1-10-4-14-5-9-16-14-26-12-9 1-16 8-19 16-1 3-1 6-2 9-2 2-6 2-8 0.2-2-1-1-4-1-6 0.2-7 4-13 8-18-2-13-5-26-6-39-2-11-0.6-24 7-33 10-13 14-31 11-47-1-6-6-10-8-15-5-10-5-21-8-32-2-9-6-18-13-25-11-12-28-17-44-17-17-0.7-34 3-48 14m100-3c7 8 12 18 14 28 2 8 3 17 5 26 1 5 5 10 8 14 2 3 3 7 4 11 3 1 6 1 9-0.9 7-5 9-13 10-21 0.7-5-0.4-11-4-14-5-5-10-10-15-15-6-6-10-13-17-19-4-4-10-6-16-8m-246 129c-9 8-14 19-16 31-3 17 1 35 11 50 6-6 14-9 22-11-4-7-7-15-8-24-1-9-0.7-19 5-27 5-6 14-10 21-7 4 1 6 4 9 6 4 4 12 3 15-2 4-5 2-12-1-16-6-9-17-13-28-13-11-0.1-21 5-28 12m12 130c1 21 4 43 15 61 7 14 19 25 34 30 9 3 19 4 28 4 56-0.01 112 0 168-0.02 8-0.06 16-2 24-5 14-6 25-18 32-32 9-18 12-38 13-58-104-0.2-208-0.1-312 0z"/><path d="m318 116c8-3 17 2 19 11 0.8 4-5 6-7 3-2-2-4-6-7-5-4-0.1-5 6-9 6-3 0.2-5-3-4-5 1-4 5-8 9-9z"/><path d="m259 119c8-3 20 2 21 11 0.9 4-5 6-7 3-2-3-5-6-9-6-5 0.2-7 4-9 8-2 4-9 2-8-2 1-6 6-12 12-14z"/><path d="m293 146c4-4 10-4 15-5 7-0.3 14-0.6 21 3 5 2 7 9 4 13-2 6-8 10-14 12-0.2 3-1 7-1 10 2 5 9 6 14 3 5-2 8-8 10-12 2-4 8-2 8 2-1 10-9 18-18 22 0.2 6 0.8 13-2 19-2 6-8 11-14 14-11 4-24 2-33-5-9-6-15-16-20-26-3-6-4-12-8-18-2-0.03-4 0.7-5-0.8-2-2-0.8-6 1-7 2-2 5-5 8-4 3 0.8 2 4 4 6 6 14 24 21 37 14 6-3 11-9 11-16-7-1-14-4-18-10-3-4-3-10 1-14m-21 50c4 9 10 17 19 21 5 2 12 3 17 2 5-1 10-5 12-10 0.9-3 0.7-7-2-9-3-3-8-3-12-3 1 3 4 6 3 9-1 2-3 2-5 3-3-4-5-10-11-10-7 0.6-14-0.03-20-2z"/></g></svg>
