<?xml version="1.0" encoding="UTF-8" ?>
<!DOCTYPE svg PUBLIC "-//W3C//DTD SVG 1.1//EN" "http://www.w3.org/Graphics/SVG/1.1/DTD/svg11.dtd">
<svg width="988pt" height="1010pt" viewBox="0 0 988 1010" version="1.1" xmlns="http://www.w3.org/2000/svg">
<g id="#fdfaf7ff">
<path fill="#fdfaf7" opacity="1.00" d=" M 477.45 4.65 C 519.55 3.18 561.87 6.53 602.97 15.96 C 680.79 33.07 753.66 70.99 813.29 123.73 C 865.90 170.08 908.53 227.73 937.35 291.66 C 985.89 399.66 996.93 524.51 965.89 638.96 C 945.65 714.70 906.86 785.23 854.51 843.52 C 803.07 900.62 738.56 946.13 666.89 974.07 C 624.09 990.80 578.84 1001.28 533.04 1004.95 C 475.30 1009.79 416.80 1003.12 361.25 986.82 C 298.33 968.33 239.29 936.99 188.37 895.70 C 127.94 846.98 78.82 784.23 46.48 713.64 C 21.34 657.75 6.48 597.24 3.03 536.05 C 2.11 518.73 2.26 501.36 2.74 484.02 C 4.34 453.41 8.49 422.92 15.04 392.98 C 24.73 351.25 38.96 310.51 58.44 272.33 C 84.33 221.07 119.41 174.52 161.27 135.24 C 203.55 95.40 252.96 62.94 306.84 41.11 C 360.93 18.84 419.11 7.24 477.45 4.65 M 525.10 109.75 C 499.21 112.05 473.14 119.74 452.11 135.43 C 442.92 131.79 432.90 129.90 423.02 131.00 C 408.25 132.41 394.58 139.18 382.59 147.61 C 367.63 158.07 355.57 171.90 342.14 184.13 C 331.32 194.72 319.57 204.31 307.64 213.62 C 301.39 218.66 294.97 223.65 289.96 229.99 C 284.05 237.20 280.21 246.02 278.66 255.19 C 276.06 270.54 279.64 286.43 286.94 300.02 C 296.95 318.73 310.75 335.46 327.26 348.79 C 340.96 359.87 358.08 367.72 375.98 367.17 C 375.30 375.85 374.70 384.59 372.67 393.08 C 368.92 410.11 360.91 425.86 351.60 440.48 C 341.70 456.77 330.37 472.11 319.98 488.07 C 300.83 477.89 276.69 478.45 257.72 488.79 C 243.06 496.72 231.24 510.31 226.29 526.31 C 216.19 512.67 210.68 495.80 209.47 478.94 C 209.04 468.36 210.21 456.69 217.23 448.24 C 221.98 442.33 231.18 440.12 237.74 444.27 C 241.54 446.43 243.15 450.81 246.61 453.36 C 257.12 461.78 272.30 463.61 284.68 458.47 C 295.63 454.34 304.27 444.94 307.89 433.86 C 311.54 423.66 310.43 412.29 306.57 402.31 C 300.42 387.07 287.89 375.14 273.62 367.41 C 257.43 358.41 238.37 355.07 220.02 357.00 C 197.67 359.30 176.59 370.00 160.48 385.50 C 141.98 402.74 129.91 426.28 125.06 450.98 C 120.59 475.14 122.19 500.27 128.91 523.87 C 133.95 540.40 141.03 556.59 151.87 570.18 C 144.61 582.27 141.54 596.94 144.04 610.89 C 145.78 621.44 151.41 631.29 159.50 638.27 C 165.00 643.22 171.89 646.06 178.80 648.39 C 179.58 651.83 179.01 655.47 179.42 658.98 C 182.12 691.85 186.99 724.99 199.30 755.79 C 211.59 786.52 231.88 814.97 260.40 832.51 C 281.48 845.50 306.23 852.39 330.98 852.34 C 443.67 852.36 556.35 852.33 669.04 852.34 C 698.28 852.54 727.48 842.73 750.55 824.72 C 772.85 807.48 789.15 783.41 799.76 757.49 C 808.97 735.71 814.05 712.46 817.03 689.07 C 818.59 675.39 820.49 661.71 820.66 647.94 C 831.26 644.78 840.60 637.24 845.22 627.11 C 850.84 614.81 850.19 599.90 843.86 587.99 C 836.36 574.03 822.30 564.12 806.92 560.74 C 799.92 559.07 792.64 559.32 785.51 559.75 C 780.10 535.36 759.34 515.31 734.98 510.14 C 718.94 506.49 701.59 509.28 687.30 517.36 C 683.20 494.02 678.38 470.74 676.28 447.10 C 675.43 436.72 675.41 425.93 679.24 416.09 C 680.75 411.99 683.38 408.46 685.84 404.89 C 690.55 398.50 695.01 391.90 698.77 384.90 C 708.97 365.48 713.65 343.34 713.17 321.47 C 725.63 324.35 738.60 319.18 747.59 310.56 C 759.29 299.95 765.19 284.46 767.82 269.22 C 769.64 257.63 770.54 245.41 766.60 234.15 C 763.43 225.01 756.82 217.68 750.16 210.90 C 742.25 202.74 734.22 194.66 726.84 186.01 C 713.80 171.45 702.64 154.65 686.01 143.82 C 670.93 133.51 652.22 128.47 634.02 130.13 C 631.39 130.20 628.60 131.30 626.07 130.44 C 595.89 112.66 559.72 106.65 525.10 109.75 M 777.42 378.58 C 764.60 381.11 753.36 390.30 748.31 402.34 C 744.63 410.68 744.08 420.31 746.52 429.06 C 749.44 440.54 758.03 450.30 768.75 455.18 C 784.04 462.33 803.58 458.45 814.93 445.93 C 825.02 435.17 828.65 418.70 823.42 404.83 C 817.22 386.43 796.54 374.12 777.42 378.58 M 832.36 474.38 C 820.09 476.00 810.91 488.96 813.12 501.06 C 813.97 506.96 817.47 512.23 822.07 515.92 C 828.68 521.06 838.12 522.14 845.75 518.76 C 852.52 515.67 857.89 509.34 859.20 501.94 C 860.67 494.28 857.95 486.07 852.46 480.59 C 847.35 475.37 839.52 472.96 832.36 474.38 Z" />
<path fill="#fdfaf7" opacity="1.00" d=" M 523.08 129.90 C 541.35 127.91 559.97 128.61 577.92 132.69 C 599.65 137.47 620.70 147.57 636.06 163.96 C 645.03 173.28 651.58 184.71 655.81 196.90 C 660.98 211.81 663.34 227.48 665.90 242.99 C 668.38 259.04 674.41 274.63 684.39 287.52 C 691.93 296.86 693.07 309.40 693.06 320.96 C 693.55 341.77 688.78 362.99 677.75 380.79 C 672.35 389.97 664.94 397.95 660.78 407.85 C 655.17 420.75 655.06 435.18 656.00 448.98 C 658.44 472.76 663.05 496.23 667.11 519.76 C 667.62 523.65 669.04 527.53 668.75 531.47 C 659.34 542.27 652.68 556.27 653.39 570.86 C 653.43 577.03 660.16 581.90 666.04 579.96 C 669.66 579.16 672.50 575.71 672.37 571.97 C 673.29 554.95 684.69 539.30 700.14 532.40 C 711.30 527.59 724.31 526.29 735.88 530.40 C 753.02 536.14 766.06 552.05 768.68 569.89 C 769.58 572.88 768.34 576.73 770.99 579.00 C 772.63 580.83 775.34 580.99 777.59 580.37 C 787.72 577.37 799.01 576.96 808.89 581.12 C 815.98 584.09 822.22 589.33 825.96 596.11 C 830.31 604.02 830.71 614.59 825.15 622.02 C 821.43 627.06 815.08 629.37 808.98 629.34 C 602.32 629.33 395.66 629.33 189.00 629.35 C 181.44 629.27 173.66 626.16 169.17 619.88 C 163.82 613.25 162.69 604.25 163.58 596.02 C 165.59 581.30 175.15 568.11 187.97 560.81 C 200.33 553.08 215.81 551.33 229.89 554.53 C 232.59 555.06 235.46 556.58 238.18 555.29 C 240.23 554.40 241.10 552.08 240.78 549.99 C 240.36 535.07 246.95 519.96 258.82 510.77 C 268.29 502.99 280.78 499.04 293.00 499.90 C 308.93 500.80 323.97 510.27 331.97 524.04 C 338.03 533.87 340.17 545.65 339.43 557.07 C 338.84 562.50 345.51 565.77 350.15 564.61 C 352.97 563.89 355.87 562.11 356.73 559.17 C 361.67 544.04 373.30 531.15 388.06 525.06 C 401.19 519.33 417.00 519.45 429.67 526.39 C 444.09 533.85 453.17 549.90 453.18 566.00 C 453.24 567.88 453.01 570.08 454.46 571.57 C 456.36 574.14 460.19 574.27 462.87 572.96 C 466.18 570.22 468.72 566.62 472.38 564.28 C 481.83 557.40 494.47 554.42 505.76 558.17 C 518.60 561.70 528.69 573.64 529.72 586.95 C 529.88 591.08 535.33 592.76 538.42 590.55 C 546.13 585.73 555.80 583.53 564.66 586.21 C 571.77 588.42 577.52 594.02 580.35 600.85 C 582.67 606.30 591.59 605.74 593.84 600.47 C 596.07 595.54 594.17 589.87 591.60 585.45 C 582.36 569.06 560.57 562.58 543.25 568.80 C 537.12 553.51 522.86 542.06 506.86 538.57 C 493.68 535.60 479.46 537.95 467.90 544.94 C 462.63 527.93 449.38 513.82 433.04 506.93 C 419.86 501.25 404.81 500.42 390.96 503.97 C 376.00 507.91 362.45 516.92 352.90 529.07 C 350.31 518.34 344.32 508.56 336.59 500.75 C 348.38 481.97 361.55 464.09 372.87 445.02 C 382.87 428.44 390.60 410.29 394.00 391.15 C 395.63 381.48 396.51 371.69 396.65 361.89 C 408.00 356.41 415.62 345.55 420.34 334.19 C 425.45 321.67 427.15 308.15 429.33 294.91 C 433.49 266.85 439.01 239.01 443.39 210.98 C 444.84 204.53 438.14 198.36 431.86 199.89 C 428.14 200.38 424.92 203.26 423.90 206.84 C 418.38 236.13 413.69 265.57 408.86 294.98 C 406.73 307.00 405.14 319.37 399.75 330.47 C 396.56 336.65 391.93 342.64 385.24 345.21 C 375.03 349.47 363.34 347.03 353.73 342.32 C 341.93 336.45 332.25 327.23 323.50 317.53 C 315.68 308.70 308.75 298.99 303.61 288.35 C 299.04 278.83 296.49 267.98 298.62 257.47 C 300.34 248.98 305.43 241.52 311.83 235.84 C 319.58 228.89 328.28 223.12 336.09 216.24 C 349.85 205.04 362.43 192.50 375.15 180.16 C 385.30 170.36 396.17 160.94 409.15 155.10 C 419.41 150.63 431.38 149.03 442.06 153.03 C 446.16 154.16 449.60 157.77 454.10 157.13 C 457.96 156.74 460.31 153.36 463.35 151.36 C 480.73 138.71 501.95 132.47 523.08 129.90 M 620.39 221.47 C 609.49 222.78 599.98 231.40 597.42 242.04 C 596.12 247.78 602.11 253.16 607.64 251.49 C 610.59 250.84 612.55 248.40 613.85 245.83 C 616.45 240.91 622.87 238.17 628.14 240.34 C 632.48 241.84 634.88 246.06 637.16 249.75 C 641.78 255.26 651.70 251.06 651.34 243.99 C 648.79 230.07 634.54 219.47 620.39 221.47 M 505.52 227.72 C 492.26 229.99 481.49 240.84 477.84 253.56 C 476.64 257.02 477.18 261.42 480.36 263.64 C 484.16 266.92 490.92 265.71 493.03 261.05 C 494.75 256.99 496.51 252.73 499.93 249.77 C 504.92 245.54 512.60 244.05 518.40 247.53 C 522.44 249.42 524.65 253.41 526.88 257.05 C 530.70 262.12 540.05 259.49 540.74 253.17 C 541.30 247.10 537.89 241.40 534.03 236.98 C 527.05 229.09 515.75 225.92 505.52 227.72 M 574.24 277.03 C 568.29 279.11 562.96 283.70 561.19 289.90 C 558.76 297.48 561.52 305.70 566.21 311.81 C 573.71 321.34 585.49 326.65 597.37 327.94 C 597.92 342.43 586.36 354.50 573.54 359.50 C 547.95 370.40 515.13 356.65 504.54 331.05 C 502.83 327.12 503.29 321.24 498.31 319.75 C 492.64 318.00 488.32 323.08 484.36 326.26 C 480.48 329.24 476.55 333.76 478.07 339.05 C 479.05 344.06 485.47 345.90 489.51 343.22 C 491.15 346.04 492.64 348.95 493.95 351.95 C 500.54 369.38 506.84 387.19 517.21 402.83 C 526.66 417.82 540.12 430.59 556.49 437.67 C 573.57 444.96 593.83 445.62 610.80 437.68 C 622.28 432.52 631.86 422.76 635.85 410.71 C 639.94 399.46 638.66 387.29 638.33 375.58 C 648.26 371.68 657.60 365.67 663.99 356.99 C 668.57 350.73 672.18 343.54 673.41 335.82 C 674.25 331.54 671.47 326.90 667.22 325.82 C 663.13 324.52 658.28 326.86 656.95 331.00 C 654.49 338.34 650.72 345.52 644.54 350.40 C 638.86 354.96 631.09 357.83 623.86 355.69 C 619.08 354.55 613.93 351.18 613.09 346.03 C 613.96 339.78 615.96 333.60 615.34 327.21 C 627.93 324.26 639.40 315.10 643.33 302.54 C 646.14 294.25 642.90 284.29 635.42 279.59 C 625.54 273.29 613.35 273.17 602.03 272.94 C 592.69 273.49 583.14 273.87 574.24 277.03 Z" />
<path fill="#fdfaf7" opacity="1.00" d=" M 650.76 150.24 C 661.27 152.29 671.25 156.88 679.56 163.66 C 689.48 171.96 697.53 182.17 705.70 192.14 C 713.90 201.96 722.38 211.56 731.56 220.48 C 737.30 226.40 743.78 232.02 747.18 239.71 C 750.73 248.77 749.32 258.76 747.58 268.06 C 745.19 279.13 740.79 290.60 731.53 297.73 C 726.23 302.17 718.58 303.88 712.23 300.64 C 710.68 295.18 709.19 289.61 706.40 284.62 C 702.39 277.43 696.73 271.26 693.15 263.81 C 689.93 257.54 688.04 250.70 686.56 243.85 C 682.70 221.90 679.67 199.35 669.98 179.04 C 665.25 168.43 658.54 158.82 650.76 150.24 Z" />
<path fill="#fdfaf7" opacity="1.00" d=" M 179.03 395.80 C 193.45 383.68 212.05 376.19 231.00 376.37 C 248.04 376.33 265.20 382.72 277.56 394.55 C 284.31 401.30 290.06 410.12 290.04 419.98 C 290.46 428.46 285.18 437.10 277.12 440.03 C 270.29 442.70 261.25 441.48 256.65 435.36 C 252.60 430.29 247.36 425.92 241.04 424.07 C 229.24 420.07 215.46 422.98 206.10 431.16 C 196.75 439.08 191.51 450.99 189.87 462.96 C 187.01 487.83 193.58 513.42 206.79 534.55 C 191.39 536.99 176.46 543.63 165.44 554.84 C 146.44 526.14 139.08 490.04 144.86 456.17 C 148.87 432.96 160.60 410.73 179.03 395.80 Z" />
<path fill="#fdfaf7" opacity="1.00" d=" M 526.69 378.09 C 538.55 382.46 551.39 384.19 563.97 382.68 C 570.86 381.47 576.70 386.60 580.31 391.90 C 582.63 394.92 583.10 399.37 586.72 401.29 C 591.43 403.26 596.62 398.93 596.80 394.15 C 597.23 388.77 593.89 384.12 591.36 379.67 C 598.21 379.67 605.81 378.11 611.90 382.15 C 618.21 385.92 620.74 394.16 618.69 401.05 C 617.09 408.72 611.51 415.00 604.83 418.80 C 593.71 425.10 579.84 424.89 567.98 420.87 C 548.61 413.85 534.25 396.83 526.69 378.09 Z" />
<path fill="#fdfaf7" opacity="1.00" d=" M 777.39 394.70 C 785.09 392.08 794.07 393.42 800.51 398.44 C 807.60 403.76 811.63 413.14 810.08 421.94 C 808.61 431.73 800.84 440.33 791.12 442.48 C 779.86 445.42 766.99 439.15 762.51 428.37 C 756.33 415.61 763.71 398.61 777.39 394.70 Z" />
<path fill="#fdfaf7" opacity="1.00" d=" M 833.49 487.62 C 841.12 484.93 849.01 493.97 845.43 501.17 C 842.97 508.01 832.66 509.24 828.38 503.57 C 823.84 498.42 826.74 489.13 833.49 487.62 Z" />
<path fill="#fdfaf7" opacity="1.00" d=" M 198.62 649.54 C 250.41 649.13 302.22 649.52 354.01 649.37 C 502.86 649.46 651.71 649.25 800.56 649.46 C 798.72 679.34 795.16 709.43 785.47 737.89 C 777.51 761.63 764.98 784.29 746.62 801.56 C 726.72 820.65 699.57 831.80 672.00 832.24 C 564.33 832.23 456.66 832.27 348.99 832.24 C 336.48 832.15 323.88 832.85 311.49 830.69 C 292.28 827.65 274.03 819.25 259.01 806.93 C 245.92 796.17 235.35 782.53 227.30 767.67 C 209.91 735.91 203.24 699.60 200.18 663.88 C 199.49 659.11 199.71 654.25 198.62 649.54 Z" />
</g>
<g id="#6bb9b9ff">
</g>
<g id="#265655ff">
<path fill="#265655" opacity="1.00" d=" M 525.10 109.75 C 559.72 106.65 595.89 112.66 626.07 130.44 C 628.60 131.30 631.39 130.20 634.02 130.13 C 652.22 128.47 670.93 133.51 686.01 143.82 C 702.64 154.65 713.80 171.45 726.84 186.01 C 734.22 194.66 742.25 202.74 750.16 210.90 C 756.82 217.68 763.43 225.01 766.60 234.15 C 770.54 245.41 769.64 257.63 767.82 269.22 C 765.19 284.46 759.29 299.95 747.59 310.56 C 738.60 319.18 725.63 324.35 713.17 321.47 C 713.65 343.34 708.97 365.48 698.77 384.90 C 695.01 391.90 690.55 398.50 685.84 404.89 C 683.38 408.46 680.75 411.99 679.24 416.09 C 675.41 425.93 675.43 436.72 676.28 447.10 C 678.38 470.74 683.20 494.02 687.30 517.36 C 701.59 509.28 718.94 506.49 734.98 510.14 C 759.34 515.31 780.10 535.36 785.51 559.75 C 792.64 559.32 799.92 559.07 806.92 560.74 C 822.30 564.12 836.36 574.03 843.86 587.99 C 850.19 599.90 850.84 614.81 845.22 627.11 C 840.60 637.24 831.26 644.78 820.66 647.94 C 820.49 661.71 818.59 675.39 817.03 689.07 C 814.05 712.46 808.97 735.71 799.76 757.49 C 789.15 783.41 772.85 807.48 750.55 824.72 C 727.48 842.73 698.28 852.54 669.04 852.34 C 556.35 852.33 443.67 852.36 330.98 852.34 C 306.23 852.39 281.48 845.50 260.40 832.51 C 231.88 814.97 211.59 786.52 199.30 755.79 C 186.99 724.99 182.12 691.85 179.42 658.98 C 179.01 655.47 179.58 651.83 178.80 648.39 C 171.89 646.06 165.00 643.22 159.50 638.27 C 151.41 631.29 145.78 621.44 144.04 610.89 C 141.54 596.94 144.61 582.27 151.87 570.18 C 141.03 556.59 133.95 540.40 128.91 523.87 C 122.19 500.27 120.59 475.14 125.06 450.98 C 129.91 426.28 141.98 402.74 160.48 385.50 C 176.59 370.00 197.67 359.30 220.02 357.00 C 238.37 355.07 257.43 358.41 273.62 367.41 C 287.89 375.14 300.42 387.07 306.57 402.31 C 310.43 412.29 311.54 423.66 307.89 433.86 C 304.27 444.94 295.63 454.34 284.68 458.47 C 272.30 463.61 257.12 461.78 246.61 453.36 C 243.15 450.81 241.54 446.43 237.74 444.27 C 231.18 440.12 221.98 442.33 217.23 448.24 C 210.21 456.69 209.04 468.36 209.47 478.94 C 210.68 495.80 216.19 512.67 226.29 526.31 C 231.24 510.31 243.06 496.72 257.72 488.79 C 276.69 478.45 300.83 477.89 319.98 488.07 C 330.37 472.11 341.70 456.77 351.60 440.48 C 360.91 425.86 368.92 410.11 372.67 393.08 C 374.70 384.59 375.30 375.85 375.98 367.17 C 358.08 367.72 340.96 359.87 327.26 348.79 C 310.75 335.46 296.95 318.73 286.94 300.02 C 279.64 286.43 276.06 270.54 278.66 255.19 C 280.21 246.02 284.05 237.20 289.96 229.99 C 294.97 223.65 301.39 218.66 307.64 213.62 C 319.57 204.31 331.32 194.72 342.14 184.13 C 355.57 171.90 367.63 158.07 382.59 147.61 C 394.58 139.18 408.25 132.41 423.02 131.00 C 432.90 129.90 442.92 131.79 452.11 135.43 C 473.14 119.74 499.21 112.05 525.10 109.75 M 523.08 129.90 C 501.95 132.47 480.73 138.71 463.35 151.36 C 460.31 153.36 457.96 156.74 454.10 157.13 C 449.60 157.77 446.16 154.16 442.06 153.03 C 431.38 149.03 419.41 150.63 409.15 155.10 C 396.17 160.94 385.30 170.36 375.15 180.16 C 362.43 192.50 349.85 205.04 336.09 216.24 C 328.28 223.12 319.58 228.89 311.83 235.84 C 305.43 241.52 300.34 248.98 298.62 257.47 C 296.49 267.98 299.04 278.83 303.61 288.35 C 308.75 298.99 315.68 308.70 323.50 317.53 C 332.25 327.23 341.93 336.45 353.73 342.32 C 363.34 347.03 375.03 349.47 385.24 345.21 C 391.93 342.64 396.56 336.65 399.75 330.47 C 405.14 319.37 406.73 307.00 408.86 294.98 C 413.69 265.57 418.38 236.13 423.90 206.84 C 424.92 203.26 428.14 200.38 431.86 199.89 C 438.14 198.36 444.84 204.53 443.39 210.98 C 439.01 239.01 433.49 266.85 429.33 294.91 C 427.15 308.15 425.45 321.67 420.34 334.19 C 415.62 345.55 408.00 356.41 396.65 361.89 C 396.51 371.69 395.63 381.48 394.00 391.15 C 390.60 410.29 382.87 428.44 372.87 445.02 C 361.55 464.09 348.38 481.97 336.59 500.75 C 344.32 508.56 350.31 518.34 352.90 529.07 C 362.45 516.92 376.00 507.91 390.96 503.97 C 404.81 500.42 419.86 501.25 433.04 506.93 C 449.38 513.82 462.63 527.93 467.90 544.94 C 479.46 537.95 493.68 535.60 506.86 538.57 C 522.86 542.06 537.12 553.51 543.25 568.80 C 560.57 562.58 582.36 569.06 591.60 585.45 C 594.17 589.87 596.07 595.54 593.84 600.47 C 591.59 605.74 582.67 606.30 580.35 600.85 C 577.52 594.02 571.77 588.42 564.66 586.21 C 555.80 583.53 546.13 585.73 538.42 590.55 C 535.33 592.76 529.88 591.08 529.72 586.95 C 528.69 573.64 518.60 561.70 505.76 558.17 C 494.47 554.42 481.83 557.40 472.38 564.28 C 468.72 566.62 466.18 570.22 462.87 572.96 C 460.19 574.27 456.36 574.14 454.46 571.57 C 453.01 570.08 453.24 567.88 453.18 566.00 C 453.17 549.90 444.09 533.85 429.67 526.39 C 417.00 519.45 401.19 519.33 388.06 525.06 C 373.30 531.15 361.67 544.04 356.73 559.17 C 355.87 562.11 352.97 563.89 350.15 564.61 C 345.51 565.77 338.84 562.50 339.43 557.07 C 340.17 545.65 338.03 533.87 331.97 524.04 C 323.97 510.27 308.93 500.80 293.00 499.90 C 280.78 499.04 268.29 502.99 258.82 510.77 C 246.95 519.96 240.36 535.07 240.78 549.99 C 241.10 552.08 240.23 554.40 238.18 555.29 C 235.46 556.58 232.59 555.06 229.89 554.53 C 215.81 551.33 200.33 553.08 187.97 560.81 C 175.15 568.11 165.59 581.30 163.58 596.02 C 162.69 604.25 163.82 613.25 169.17 619.88 C 173.66 626.16 181.44 629.27 189.00 629.35 C 395.66 629.33 602.32 629.33 808.98 629.34 C 815.08 629.37 821.43 627.06 825.15 622.02 C 830.71 614.59 830.31 604.02 825.96 596.11 C 822.22 589.33 815.98 584.09 808.89 581.12 C 799.01 576.96 787.72 577.37 777.59 580.37 C 775.34 580.99 772.63 580.83 770.99 579.00 C 768.34 576.73 769.58 572.88 768.68 569.89 C 766.06 552.05 753.02 536.14 735.88 530.40 C 724.31 526.29 711.30 527.59 700.14 532.40 C 684.69 539.30 673.29 554.95 672.37 571.97 C 672.50 575.71 669.66 579.16 666.04 579.96 C 660.16 581.90 653.43 577.03 653.39 570.86 C 652.68 556.27 659.34 542.27 668.75 531.47 C 669.04 527.53 667.62 523.65 667.11 519.76 C 663.05 496.23 658.44 472.76 656.00 448.98 C 655.06 435.18 655.17 420.75 660.78 407.85 C 664.94 397.95 672.35 389.97 677.75 380.79 C 688.78 362.99 693.55 341.77 693.06 320.96 C 693.07 309.40 691.93 296.86 684.39 287.52 C 674.41 274.63 668.38 259.04 665.90 242.99 C 663.34 227.48 660.98 211.81 655.81 196.90 C 651.58 184.71 645.03 173.28 636.06 163.96 C 620.70 147.57 599.65 137.47 577.92 132.69 C 559.97 128.61 541.35 127.91 523.08 129.90 M 650.76 150.24 C 658.54 158.82 665.25 168.43 669.98 179.04 C 679.67 199.35 682.70 221.90 686.56 243.85 C 688.04 250.70 689.93 257.54 693.15 263.81 C 696.73 271.26 702.39 277.43 706.40 284.62 C 709.19 289.61 710.68 295.18 712.23 300.64 C 718.58 303.88 726.23 302.17 731.53 297.73 C 740.79 290.60 745.19 279.13 747.58 268.06 C 749.32 258.76 750.73 248.77 747.18 239.71 C 743.78 232.02 737.30 226.40 731.56 220.48 C 722.38 211.56 713.90 201.96 705.70 192.14 C 697.53 182.17 689.48 171.96 679.56 163.66 C 671.25 156.88 661.27 152.29 650.76 150.24 M 179.03 395.80 C 160.60 410.73 148.87 432.96 144.86 456.17 C 139.08 490.04 146.44 526.14 165.44 554.84 C 176.46 543.63 191.39 536.99 206.79 534.55 C 193.58 513.42 187.01 487.83 189.87 462.96 C 191.51 450.99 196.75 439.08 206.10 431.16 C 215.46 422.98 229.24 420.07 241.04 424.07 C 247.36 425.92 252.60 430.29 256.65 435.36 C 261.25 441.48 270.29 442.70 277.12 440.03 C 285.18 437.10 290.46 428.46 290.04 419.98 C 290.06 410.12 284.31 401.30 277.56 394.55 C 265.20 382.72 248.04 376.33 231.00 376.37 C 212.05 376.19 193.45 383.68 179.03 395.80 M 198.62 649.54 C 199.71 654.25 199.49 659.11 200.18 663.88 C 203.24 699.60 209.91 735.91 227.30 767.67 C 235.35 782.53 245.92 796.17 259.01 806.93 C 274.03 819.25 292.28 827.65 311.49 830.69 C 323.88 832.85 336.48 832.15 348.99 832.24 C 456.66 832.27 564.33 832.23 672.00 832.24 C 699.57 831.80 726.72 820.65 746.62 801.56 C 764.98 784.29 777.51 761.63 785.47 737.89 C 795.16 709.43 798.72 679.34 800.56 649.46 C 651.71 649.25 502.86 649.46 354.01 649.37 C 302.22 649.52 250.41 649.13 198.62 649.54 Z" />
<path fill="#265655" opacity="1.00" d=" M 620.39 221.47 C 634.54 219.47 648.79 230.07 651.34 243.99 C 651.70 251.06 641.78 255.26 637.16 249.75 C 634.88 246.06 632.48 241.84 628.14 240.34 C 622.87 238.17 616.45 240.91 613.85 245.83 C 612.55 248.40 610.59 250.84 607.64 251.49 C 602.11 253.16 596.12 247.78 597.42 242.04 C 599.98 231.40 609.49 222.78 620.39 221.47 Z" />
<path fill="#265655" opacity="1.00" d=" M 505.52 227.72 C 515.75 225.92 527.05 229.09 534.03 236.98 C 537.89 241.40 541.30 247.10 540.74 253.17 C 540.05 259.49 530.70 262.12 526.88 257.05 C 524.65 253.41 522.44 249.42 518.40 247.53 C 512.60 244.05 504.92 245.54 499.93 249.77 C 496.51 252.73 494.75 256.99 493.03 261.05 C 490.92 265.71 484.16 266.92 480.36 263.64 C 477.18 261.42 476.64 257.02 477.84 253.56 C 481.49 240.84 492.26 229.99 505.52 227.72 Z" />
<path fill="#265655" opacity="1.00" d=" M 574.24 277.03 C 583.14 273.87 592.69 273.49 602.03 272.94 C 613.35 273.17 625.54 273.29 635.42 279.59 C 642.90 284.29 646.14 294.25 643.33 302.54 C 639.40 315.10 627.93 324.26 615.34 327.21 C 615.96 333.60 613.96 339.78 613.09 346.03 C 613.93 351.18 619.08 354.55 623.86 355.69 C 631.09 357.83 638.86 354.96 644.54 350.40 C 650.72 345.52 654.49 338.34 656.95 331.00 C 658.28 326.86 663.13 324.52 667.22 325.82 C 671.47 326.90 674.25 331.54 673.41 335.82 C 672.18 343.54 668.57 350.73 663.99 356.99 C 657.60 365.67 648.26 371.68 638.33 375.58 C 638.66 387.29 639.94 399.46 635.85 410.71 C 631.86 422.76 622.28 432.52 610.80 437.68 C 593.83 445.62 573.57 444.96 556.49 437.67 C 540.12 430.59 526.66 417.82 517.21 402.83 C 506.84 387.19 500.54 369.38 493.95 351.95 C 492.64 348.95 491.15 346.04 489.51 343.22 C 485.47 345.90 479.05 344.06 478.07 339.05 C 476.55 333.76 480.48 329.24 484.36 326.26 C 488.32 323.08 492.64 318.00 498.31 319.75 C 503.29 321.24 502.83 327.12 504.54 331.05 C 515.13 356.65 547.95 370.40 573.54 359.50 C 586.36 354.50 597.92 342.43 597.37 327.94 C 585.49 326.65 573.71 321.34 566.21 311.81 C 561.52 305.70 558.76 297.48 561.19 289.90 C 562.96 283.70 568.29 279.11 574.24 277.03 M 526.69 378.09 C 534.25 396.83 548.61 413.85 567.98 420.87 C 579.84 424.89 593.71 425.10 604.83 418.80 C 611.51 415.00 617.09 408.72 618.69 401.05 C 620.74 394.16 618.21 385.92 611.90 382.15 C 605.81 378.11 598.21 379.67 591.36 379.67 C 593.89 384.12 597.23 388.77 596.80 394.15 C 596.62 398.93 591.43 403.26 586.72 401.29 C 583.10 399.37 582.63 394.92 580.31 391.90 C 576.70 386.60 570.86 381.47 563.97 382.68 C 551.39 384.19 538.55 382.46 526.69 378.09 Z" />
</g>
</svg>
