<svg viewBox="0 0 100 100" xmlns="http://www.w3.org/2000/svg"><circle cx="50" cy="50" r="48" fill="#9B92B8"/><g fill="#fff"><path d="M50 48 C 35 48 26 56 26 65 C 26 72 31 78 38 78 C 42 78 45 76 47 73 C 48 71 49 71 50 71 C 51 71 52 71 53 73 C 55 76 58 78 62 78 C 69 78 74 72 74 65 C 74 56 65 48 50 48 Z"/><ellipse cx="28" cy="38" rx="6" ry="9" transform="rotate(-15 28 38)"/><ellipse cx="42" cy="27" rx="5.5" ry="9" transform="rotate(-5 42 27)"/><ellipse cx="58" cy="27" rx="5.5" ry="9" transform="rotate(5 58 27)"/><ellipse cx="72" cy="38" rx="6" ry="9" transform="rotate(15 72 38)"/></g></svg>